<?xml version="1.0" encoding="UTF-8" standalone="no"?>
<!DOCTYPE svg PUBLIC "-//W3C//DTD SVG 1.1//EN" "http://www.w3.org/Graphics/SVG/1.1/DTD/svg11.dtd">
<svg width="100%" height="100%" viewBox="0 0 918 292" version="1.1" xmlns="http://www.w3.org/2000/svg" xmlns:xlink="http://www.w3.org/1999/xlink" xml:space="preserve" xmlns:serif="http://www.serif.com/" style="fill-rule:evenodd;clip-rule:evenodd;stroke-linejoin:round;stroke-miterlimit:2;">
    <g id="Tavola-da-disegno1" serif:id="Tavola da disegno1" transform="matrix(1,0,0,1,-57.7872,-314.518)">
        <rect x="57.787" y="314.518" width="917.779" height="291.175" style="fill:none;"/>
        <g transform="matrix(1,0,0,1,-0.61668,2.5651)">
            <g transform="matrix(14.5588,0,0,14.5588,-3007.48,-1139.8)">
                <g transform="matrix(12,0,0,12,211.438,116.009)">
                    <path d="M0.391,0.01C0.32,0.01 0.258,-0.005 0.204,-0.035C0.151,-0.066 0.109,-0.108 0.079,-0.164C0.049,-0.22 0.034,-0.286 0.034,-0.362C0.034,-0.442 0.05,-0.51 0.082,-0.566C0.114,-0.622 0.157,-0.664 0.211,-0.694C0.265,-0.723 0.324,-0.737 0.39,-0.737C0.433,-0.737 0.473,-0.731 0.51,-0.719C0.546,-0.707 0.579,-0.689 0.608,-0.667C0.637,-0.645 0.66,-0.618 0.677,-0.588C0.694,-0.557 0.705,-0.524 0.709,-0.487L0.51,-0.487C0.507,-0.5 0.502,-0.511 0.495,-0.521C0.489,-0.53 0.48,-0.538 0.47,-0.545C0.461,-0.552 0.449,-0.557 0.436,-0.56C0.423,-0.564 0.409,-0.565 0.394,-0.565C0.361,-0.565 0.333,-0.558 0.309,-0.542C0.286,-0.526 0.268,-0.503 0.256,-0.473C0.243,-0.443 0.237,-0.407 0.237,-0.365C0.237,-0.323 0.243,-0.286 0.255,-0.256C0.267,-0.226 0.284,-0.202 0.307,-0.186C0.33,-0.17 0.358,-0.162 0.393,-0.162C0.423,-0.162 0.448,-0.167 0.468,-0.175C0.488,-0.184 0.503,-0.197 0.512,-0.213C0.522,-0.229 0.527,-0.248 0.527,-0.27L0.562,-0.266L0.396,-0.266L0.396,-0.406L0.718,-0.406L0.718,-0.306C0.718,-0.239 0.704,-0.183 0.676,-0.135C0.648,-0.088 0.609,-0.052 0.56,-0.028C0.51,-0.003 0.454,0.01 0.391,0.01Z" style="fill:rgb(51,51,51);fill-rule:nonzero;"/>
                </g>
                <g transform="matrix(12,0,0,12,220.491,116.009)">
                    <path d="M0.313,0.01C0.254,0.01 0.203,-0.002 0.161,-0.026C0.118,-0.049 0.086,-0.082 0.064,-0.124C0.041,-0.166 0.03,-0.215 0.03,-0.271C0.03,-0.327 0.041,-0.377 0.064,-0.419C0.086,-0.461 0.118,-0.494 0.161,-0.517C0.203,-0.541 0.254,-0.553 0.313,-0.553C0.372,-0.553 0.423,-0.541 0.465,-0.517C0.507,-0.494 0.539,-0.461 0.561,-0.419C0.584,-0.377 0.595,-0.327 0.595,-0.271C0.595,-0.215 0.584,-0.166 0.561,-0.124C0.539,-0.082 0.507,-0.049 0.465,-0.026C0.423,-0.002 0.372,0.01 0.313,0.01ZM0.313,-0.137C0.33,-0.137 0.344,-0.142 0.357,-0.153C0.369,-0.164 0.378,-0.179 0.385,-0.199C0.391,-0.22 0.395,-0.244 0.395,-0.272C0.395,-0.301 0.391,-0.325 0.385,-0.345C0.378,-0.365 0.369,-0.38 0.357,-0.391C0.344,-0.401 0.33,-0.406 0.313,-0.406C0.296,-0.406 0.281,-0.401 0.269,-0.391C0.256,-0.38 0.247,-0.365 0.24,-0.345C0.234,-0.325 0.23,-0.301 0.23,-0.272C0.23,-0.244 0.234,-0.22 0.24,-0.199C0.247,-0.179 0.256,-0.164 0.269,-0.153C0.281,-0.142 0.296,-0.137 0.313,-0.137Z" style="fill:rgb(51,51,51);fill-rule:nonzero;"/>
                </g>
                <g transform="matrix(12,0,0,12,227.991,116.009)">
                    <path d="M0.05,-0L0.05,-0.546L0.24,-0.546L0.24,-0.441L0.246,-0.441C0.256,-0.48 0.272,-0.508 0.293,-0.526C0.315,-0.544 0.34,-0.553 0.369,-0.553C0.378,-0.553 0.386,-0.552 0.395,-0.551C0.403,-0.549 0.411,-0.548 0.419,-0.545L0.419,-0.378C0.409,-0.382 0.397,-0.384 0.383,-0.385C0.369,-0.387 0.357,-0.388 0.347,-0.388C0.327,-0.388 0.31,-0.383 0.295,-0.375C0.28,-0.366 0.268,-0.354 0.259,-0.339C0.25,-0.323 0.246,-0.305 0.246,-0.284L0.246,-0L0.05,-0Z" style="fill:rgb(51,51,51);fill-rule:nonzero;"/>
                </g>
                <g transform="matrix(12,0,0,12,232.819,116.009)">
                    <path d="M0.311,0.216C0.261,0.216 0.217,0.21 0.18,0.197C0.142,0.184 0.112,0.167 0.09,0.144C0.067,0.121 0.053,0.094 0.048,0.063L0.22,0.037C0.222,0.047 0.227,0.055 0.235,0.062C0.243,0.069 0.253,0.075 0.266,0.078C0.278,0.082 0.293,0.084 0.31,0.084C0.341,0.084 0.365,0.077 0.381,0.063C0.396,0.049 0.404,0.028 0.404,-0.001L0.404,-0.094L0.39,-0.094C0.383,-0.076 0.373,-0.06 0.36,-0.047C0.347,-0.034 0.33,-0.024 0.311,-0.017C0.292,-0.01 0.27,-0.007 0.245,-0.007C0.206,-0.007 0.171,-0.016 0.138,-0.034C0.106,-0.052 0.08,-0.081 0.06,-0.12C0.04,-0.159 0.03,-0.21 0.03,-0.272C0.03,-0.339 0.041,-0.392 0.061,-0.433C0.082,-0.475 0.109,-0.505 0.141,-0.524C0.174,-0.543 0.208,-0.553 0.244,-0.553C0.271,-0.553 0.295,-0.548 0.315,-0.539C0.336,-0.53 0.353,-0.517 0.367,-0.501C0.382,-0.486 0.392,-0.469 0.399,-0.45L0.403,-0.45L0.403,-0.546L0.598,-0.546L0.598,-0.021C0.598,0.031 0.586,0.074 0.562,0.109C0.538,0.144 0.504,0.171 0.461,0.189C0.418,0.207 0.368,0.216 0.311,0.216ZM0.317,-0.146C0.336,-0.146 0.351,-0.151 0.364,-0.161C0.377,-0.171 0.387,-0.186 0.394,-0.205C0.401,-0.223 0.404,-0.246 0.404,-0.272C0.404,-0.299 0.401,-0.323 0.394,-0.342C0.387,-0.361 0.377,-0.376 0.364,-0.387C0.351,-0.397 0.336,-0.402 0.317,-0.402C0.299,-0.402 0.284,-0.397 0.271,-0.387C0.259,-0.376 0.249,-0.361 0.242,-0.342C0.236,-0.323 0.232,-0.299 0.232,-0.272C0.232,-0.246 0.236,-0.223 0.242,-0.204C0.249,-0.185 0.259,-0.171 0.271,-0.161C0.284,-0.151 0.299,-0.146 0.317,-0.146Z" style="fill:rgb(51,51,51);fill-rule:nonzero;"/>
                </g>
                <g transform="matrix(12,0,0,12,240.588,116.009)">
                    <path d="M0.313,0.01C0.254,0.01 0.203,-0.002 0.161,-0.026C0.118,-0.049 0.086,-0.082 0.064,-0.124C0.041,-0.166 0.03,-0.215 0.03,-0.271C0.03,-0.327 0.041,-0.377 0.064,-0.419C0.086,-0.461 0.118,-0.494 0.161,-0.517C0.203,-0.541 0.254,-0.553 0.313,-0.553C0.372,-0.553 0.423,-0.541 0.465,-0.517C0.507,-0.494 0.539,-0.461 0.561,-0.419C0.584,-0.377 0.595,-0.327 0.595,-0.271C0.595,-0.215 0.584,-0.166 0.561,-0.124C0.539,-0.082 0.507,-0.049 0.465,-0.026C0.423,-0.002 0.372,0.01 0.313,0.01ZM0.313,-0.137C0.33,-0.137 0.344,-0.142 0.357,-0.153C0.369,-0.164 0.378,-0.179 0.385,-0.199C0.391,-0.22 0.395,-0.244 0.395,-0.272C0.395,-0.301 0.391,-0.325 0.385,-0.345C0.378,-0.365 0.369,-0.38 0.357,-0.391C0.344,-0.401 0.33,-0.406 0.313,-0.406C0.296,-0.406 0.281,-0.401 0.269,-0.391C0.256,-0.38 0.247,-0.365 0.24,-0.345C0.234,-0.325 0.23,-0.301 0.23,-0.272C0.23,-0.244 0.234,-0.22 0.24,-0.199C0.247,-0.179 0.256,-0.164 0.269,-0.153C0.281,-0.142 0.296,-0.137 0.313,-0.137Z" style="fill:rgb(51,51,51);fill-rule:nonzero;"/>
                </g>
                <g transform="matrix(12,0,0,12,248.088,116.009)">
                    <path d="M0.311,0.216C0.261,0.216 0.217,0.21 0.18,0.197C0.142,0.184 0.112,0.167 0.09,0.144C0.067,0.121 0.053,0.094 0.048,0.063L0.22,0.037C0.222,0.047 0.227,0.055 0.235,0.062C0.243,0.069 0.253,0.075 0.266,0.078C0.278,0.082 0.293,0.084 0.31,0.084C0.341,0.084 0.365,0.077 0.381,0.063C0.396,0.049 0.404,0.028 0.404,-0.001L0.404,-0.094L0.39,-0.094C0.383,-0.076 0.373,-0.06 0.36,-0.047C0.347,-0.034 0.33,-0.024 0.311,-0.017C0.292,-0.01 0.27,-0.007 0.245,-0.007C0.206,-0.007 0.171,-0.016 0.138,-0.034C0.106,-0.052 0.08,-0.081 0.06,-0.12C0.04,-0.159 0.03,-0.21 0.03,-0.272C0.03,-0.339 0.041,-0.392 0.061,-0.433C0.082,-0.475 0.109,-0.505 0.141,-0.524C0.174,-0.543 0.208,-0.553 0.244,-0.553C0.271,-0.553 0.295,-0.548 0.315,-0.539C0.336,-0.53 0.353,-0.517 0.367,-0.501C0.382,-0.486 0.392,-0.469 0.399,-0.45L0.403,-0.45L0.403,-0.546L0.598,-0.546L0.598,-0.021C0.598,0.031 0.586,0.074 0.562,0.109C0.538,0.144 0.504,0.171 0.461,0.189C0.418,0.207 0.368,0.216 0.311,0.216ZM0.317,-0.146C0.336,-0.146 0.351,-0.151 0.364,-0.161C0.377,-0.171 0.387,-0.186 0.394,-0.205C0.401,-0.223 0.404,-0.246 0.404,-0.272C0.404,-0.299 0.401,-0.323 0.394,-0.342C0.387,-0.361 0.377,-0.376 0.364,-0.387C0.351,-0.397 0.336,-0.402 0.317,-0.402C0.299,-0.402 0.284,-0.397 0.271,-0.387C0.259,-0.376 0.249,-0.361 0.242,-0.342C0.236,-0.323 0.232,-0.299 0.232,-0.272C0.232,-0.246 0.236,-0.223 0.242,-0.204C0.249,-0.185 0.259,-0.171 0.271,-0.161C0.284,-0.151 0.299,-0.146 0.317,-0.146Z" style="fill:rgb(51,51,51);fill-rule:nonzero;"/>
                </g>
                <g transform="matrix(12,0,0,12,255.858,116.009)">
                    <rect x="0.05" y="-0.728" width="0.196" height="0.728" style="fill:rgb(51,51,51);fill-rule:nonzero;"/>
                </g>
                <g transform="matrix(12,0,0,12,259.409,116.009)">
                    <path d="M0.05,-0L0.05,-0.546L0.246,-0.546L0.246,-0L0.05,-0ZM0.084,-0.613L-0.022,-0.772L0.146,-0.772L0.213,-0.613L0.084,-0.613Z" style="fill:rgb(51,51,51);fill-rule:nonzero;"/>
                </g>
                <g transform="matrix(12,0,0,12,262.96,116.009)">
                    <path d="M0.313,0.01C0.254,0.01 0.203,-0.002 0.161,-0.026C0.118,-0.049 0.086,-0.082 0.064,-0.124C0.041,-0.166 0.03,-0.215 0.03,-0.271C0.03,-0.327 0.041,-0.377 0.064,-0.419C0.086,-0.461 0.118,-0.494 0.161,-0.517C0.203,-0.541 0.254,-0.553 0.313,-0.553C0.372,-0.553 0.423,-0.541 0.465,-0.517C0.507,-0.494 0.539,-0.461 0.561,-0.419C0.584,-0.377 0.595,-0.327 0.595,-0.271C0.595,-0.215 0.584,-0.166 0.561,-0.124C0.539,-0.082 0.507,-0.049 0.465,-0.026C0.423,-0.002 0.372,0.01 0.313,0.01ZM0.313,-0.137C0.33,-0.137 0.344,-0.142 0.357,-0.153C0.369,-0.164 0.378,-0.179 0.385,-0.199C0.391,-0.22 0.395,-0.244 0.395,-0.272C0.395,-0.301 0.391,-0.325 0.385,-0.345C0.378,-0.365 0.369,-0.38 0.357,-0.391C0.344,-0.401 0.33,-0.406 0.313,-0.406C0.296,-0.406 0.281,-0.401 0.269,-0.391C0.256,-0.38 0.247,-0.365 0.24,-0.345C0.234,-0.325 0.23,-0.301 0.23,-0.272C0.23,-0.244 0.234,-0.22 0.24,-0.199C0.247,-0.179 0.256,-0.164 0.269,-0.153C0.281,-0.142 0.296,-0.137 0.313,-0.137Z" style="fill:rgb(51,51,51);fill-rule:nonzero;"/>
                </g>
            </g>
            <g transform="matrix(0.712881,0,0,0.712881,240.55,277.865)">
                <g transform="matrix(10.753,0,0,10.753,-2177.71,-553.587)">
                    <path d="M280.688,66.048C279.543,64.821 278.363,63.706 277.406,62.869C276.24,61.846 275.418,61.219 275.418,61.219C275.418,61.219 276.266,61.812 277.473,62.789C278.432,63.562 279.613,64.587 280.777,65.728C280.898,65.327 281.043,64.933 281.244,64.553C281.557,63.961 281.959,63.42 282.426,62.921C279.092,61.135 274.686,60.691 274.686,60.691C274.686,60.691 275.318,61.706 275.891,63.51C276.914,66.729 277.807,71.718 281.719,71.922C280.602,69.79 280.26,67.823 280.688,66.048Z" style="fill:rgb(98,185,70);fill-rule:nonzero;"/>
                </g>
                <g transform="matrix(10.753,0,0,10.753,-2177.71,-553.587)">
                    <path d="M282.258,71.886C282.283,71.897 282.307,71.906 282.332,71.917C282.441,71.706 282.557,71.49 282.688,71.274C282.828,71.029 282.977,70.778 283.141,70.53C283.299,70.276 283.469,70.021 283.652,69.767C283.826,69.508 284.016,69.251 284.213,68.993C284.992,67.958 285.891,66.911 286.84,65.915C288.734,63.923 290.805,62.118 292.402,60.829C294,59.537 295.121,58.751 295.121,58.751C295.121,58.751 294.033,59.581 292.492,60.935C290.949,62.284 288.961,64.166 287.166,66.213C286.268,67.236 285.424,68.304 284.703,69.347C284.521,69.607 284.346,69.865 284.186,70.124C284.018,70.378 283.863,70.633 283.721,70.884C283.57,71.131 283.438,71.378 283.313,71.619C283.203,71.817 283.107,72.013 283.018,72.204C291.496,75.517 292.861,66.927 294.496,61.783C295.254,59.395 296.09,58.053 296.09,58.053C296.09,58.053 275.83,60.082 282.258,71.886Z" style="fill:rgb(98,185,70);fill-rule:nonzero;"/>
                </g>
            </g>
        </g>
    </g>
    <g transform="matrix(1.98882,0,0,1.98882,1953.33,-659.137)">
        <g id="Livello1">
        </g>
    </g>
</svg>
